<mxfile host="app.diagrams.net" modified="2023-10-17T05:24:06.601Z" agent="Mozilla/5.0 (Windows NT 10.0; Win64; x64) AppleWebKit/537.36 (KHTML, like Gecko) Chrome/106.0.0.0 Safari/537.36 Edg/106.0.1370.47" etag="DLMRocNZCJOKnLhchRzN" version="22.0.4" type="github">
  <diagram name="Page-1" id="-bKKXvRR2x9mVC-Tdcj0">
    <mxGraphModel dx="833" dy="476" grid="1" gridSize="10" guides="1" tooltips="1" connect="1" arrows="1" fold="1" page="1" pageScale="1" pageWidth="850" pageHeight="1100" math="0" shadow="0">
      <root>
        <mxCell id="0" />
        <mxCell id="1" parent="0" />
        <mxCell id="PWtXPN_vjecTQz2SPmj0-1" value="" style="edgeStyle=orthogonalEdgeStyle;rounded=0;orthogonalLoop=1;jettySize=auto;html=1;" edge="1" parent="1" source="PWtXPN_vjecTQz2SPmj0-2" target="PWtXPN_vjecTQz2SPmj0-4">
          <mxGeometry relative="1" as="geometry" />
        </mxCell>
        <mxCell id="PWtXPN_vjecTQz2SPmj0-2" value="START" style="strokeWidth=2;html=1;shape=mxgraph.flowchart.terminator;whiteSpace=wrap;" vertex="1" parent="1">
          <mxGeometry x="425" y="40" width="100" height="60" as="geometry" />
        </mxCell>
        <mxCell id="PWtXPN_vjecTQz2SPmj0-3" style="edgeStyle=orthogonalEdgeStyle;rounded=0;orthogonalLoop=1;jettySize=auto;html=1;entryX=0.5;entryY=0;entryDx=0;entryDy=0;" edge="1" parent="1" source="PWtXPN_vjecTQz2SPmj0-4" target="PWtXPN_vjecTQz2SPmj0-6">
          <mxGeometry relative="1" as="geometry" />
        </mxCell>
        <mxCell id="PWtXPN_vjecTQz2SPmj0-4" value="LUAS SEGITIGA&lt;br&gt;a&lt;br&gt;t" style="shape=parallelogram;perimeter=parallelogramPerimeter;whiteSpace=wrap;html=1;fixedSize=1;strokeWidth=2;" vertex="1" parent="1">
          <mxGeometry x="402.5" y="200" width="145" height="50" as="geometry" />
        </mxCell>
        <mxCell id="PWtXPN_vjecTQz2SPmj0-5" value="" style="edgeStyle=orthogonalEdgeStyle;rounded=0;orthogonalLoop=1;jettySize=auto;html=1;" edge="1" parent="1" source="PWtXPN_vjecTQz2SPmj0-6" target="PWtXPN_vjecTQz2SPmj0-8">
          <mxGeometry relative="1" as="geometry" />
        </mxCell>
        <mxCell id="PWtXPN_vjecTQz2SPmj0-6" value="luas segi tiga= 1/2*a*t" style="rounded=1;whiteSpace=wrap;html=1;absoluteArcSize=1;arcSize=14;strokeWidth=2;" vertex="1" parent="1">
          <mxGeometry x="425" y="320" width="100" height="100" as="geometry" />
        </mxCell>
        <mxCell id="PWtXPN_vjecTQz2SPmj0-7" value="" style="edgeStyle=orthogonalEdgeStyle;rounded=0;orthogonalLoop=1;jettySize=auto;html=1;" edge="1" parent="1" source="PWtXPN_vjecTQz2SPmj0-8" target="PWtXPN_vjecTQz2SPmj0-9">
          <mxGeometry relative="1" as="geometry" />
        </mxCell>
        <mxCell id="PWtXPN_vjecTQz2SPmj0-8" value="luas segitiga" style="shape=parallelogram;perimeter=parallelogramPerimeter;whiteSpace=wrap;html=1;fixedSize=1;rounded=1;arcSize=14;strokeWidth=2;" vertex="1" parent="1">
          <mxGeometry x="415" y="520" width="120" height="60" as="geometry" />
        </mxCell>
        <mxCell id="PWtXPN_vjecTQz2SPmj0-9" value="END" style="strokeWidth=2;html=1;shape=mxgraph.flowchart.terminator;whiteSpace=wrap;" vertex="1" parent="1">
          <mxGeometry x="425" y="620" width="100" height="60" as="geometry" />
        </mxCell>
      </root>
    </mxGraphModel>
  </diagram>
</mxfile>
